ply
format ascii 1.0
comment created by gply, a Houdini tool.
comment converted from .[b]geo
comment for more information about Houdini, try:
comment www.sidefx.com
element vertex 39
property float x
property float y
property float z
property float index
property uchar red
property uchar green
property uchar blue
element face 12
property list uchar int vertex_indices
end_header
0 5 5 99 15 255 0 
0.72411865 5.11378431 5.46119976 99 87 255 0 
1.49698806 5.15236282 5.85002422 99 236 255 0 
2.30216837 5.1347518 6.16841793 99 255 134 0 
3.11863208 5.09626865 6.45461035 99 255 52 0 
3.93788671 5.05068207 6.73163652 99 255 62 0 
4.75776005 5.00684452 7.0071106 99 255 154 0 
5.57620668 4.96491003 7.28708649 99 206 255 0 
6.39100742 4.91563702 7.57634735 99 41 255 0 
7.20227766 4.82025576 7.86399889 99 0 255 69 
8.00166607 4.6253252 8.1341486 99 0 255 125 
8.76876163 4.36238718 8.43816757 99 0 255 165 
9.51897717 4.13742971 8.80772209 99 0 255 209 
10.284071 4.05316448 9.20462418 99 0 248 255 
11.0582829 4.2296834 9.55022049 99 0 201 255 
11.7513828 4.69228935 9.78603363 99 0 151 255 
12.3360634 5.30672169 9.96102238 99 0 120 255 
12.920166 5.94260693 10.0279131 99 0 121 255 
13.5341663 6.54799461 9.94723415 99 0 187 255 
14.1616926 7.10588598 9.73517895 99 0 255 193 
14.8435698 7.57549858 9.48119545 99 0 255 34 
15.5837641 7.94373226 9.22328663 99 2 255 0 
16.3999252 8.13620853 9.00687885 99 22 255 0 
17.246624 8.17595768 8.82933617 99 22 255 0 
18.0955124 8.09839058 8.67645454 99 8 255 0 
18.9353275 7.94215393 8.53397655 99 0 255 17 
19.7662392 7.75540209 8.37677956 99 0 255 58 
20.5868492 7.59694624 8.14986229 99 0 255 117 
21.3497162 7.5209074 7.74705887 99 0 255 192 
21.9152641 7.44422626 7.09569502 99 0 255 245 
22.1973286 7.38293266 6.27918863 99 0 240 255 
22.1811981 7.45481253 5.4163022 99 0 224 255 
21.9819679 7.788311 4.64229584 99 0 202 255 
21.8486328 8.32966042 3.97960281 99 0 199 255 
22.0418949 8.93515873 3.39136672 99 0 255 254 
22.5170002 9.51535606 2.958184 99 0 255 198 
23.0708904 10.0458975 2.55602598 99 0 118 255 
23.5711117 10.6664257 2.21731877 99 51 0 255 
23.5711117 10.6664257 2.21731877 99 51 0 255 
3 17 18 19 
3 37 38 0 
10 0 1 2 3 4 5 6 35 36 37 
4 6 7 34 35 
4 7 8 33 34 
4 8 9 32 33 
11 9 10 24 25 26 27 28 29 30 31 32 
4 10 11 23 24 
4 11 12 22 23 
5 12 13 14 21 22 
5 14 15 16 20 21 
4 16 17 19 20 
